# xmcd
#
# Track frame offsets:
#	150
#	19782
#	48799
#	74967
#	98783
#	125227
#	154344
#	183305
#	210419
#	234236
#	254891
#	281330
#	306857
#
# Disc length: 4393 seconds
#
# Revision: 0
# Processed by: cddbd v1.5.1PL2 Copyright (c) Steve Scherf et al.
# Submitted via: audiograbber 1.83.01
#
DISCID=be11270d
DTITLE=Dan Brown - Meteor
DYEAR=2005
DGENRE=Hörbuch
TTITLE0=Dan Brown - Kapitel 29
TTITLE1=Dan Brown - Kapitel 30
TTITLE2=Dan Brown - Kapitel 31
TTITLE3=Dan Brown - Kapitel 32
TTITLE4=Dan Brown - Kapitel 33
TTITLE5=Dan Brown - Kapitel 34
TTITLE6=Dan Brown - Kapitel 35
TTITLE7=Dan Brown - Kapitel 36
TTITLE8=Dan Brown - Kapitel 37
TTITLE9=Dan Brown - Kapitel 38
TTITLE10=Dan Brown - Kapitel 39
TTITLE11=Dan Brown - Kapitel 40
TTITLE12=Dan Brown - Kapitel 41
EXTD=
EXTT0=
EXTT1=
EXTT2=
EXTT3=
EXTT4=
EXTT5=
EXTT6=
EXTT7=
EXTT8=
EXTT9=
EXTT10=
EXTT11=
EXTT12=
PLAYORDER=
